<?xml version="1.0" encoding="utf-8"?>
<!-- Generator: Adobe Illustrator 17.0.0, SVG Export Plug-In . SVG Version: 6.00 Build 0)  -->
<!DOCTYPE svg PUBLIC "-//W3C//DTD SVG 1.1//EN" "http://www.w3.org/Graphics/SVG/1.1/DTD/svg11.dtd">
<svg version="1.1" xmlns="http://www.w3.org/2000/svg" xmlns:xlink="http://www.w3.org/1999/xlink" x="0px" y="0px" width="94px"
	 height="30px" viewBox="0 0 94 30" enable-background="new 0 0 94 30" xml:space="preserve">
<g id="Capa_1">
	<rect fill="#CCCCCC" width="94" height="30"/>
	<rect x="64" fill="#19BC9C" width="30" height="30"/>
</g>
<g id="Capa_3">
	<polygon fill="#148E77" points="76.75,23.438 84.375,30 94,30 94,14 87.625,6.625 	"/>
</g>
<g id="Capa_2">
	<g>
		<path fill="#FFFFFF" d="M87.477,6.172c0.219,0.16,0.309,0.373,0.269,0.639l-2.553,15.321c-0.034,0.193-0.14,0.343-0.32,0.449
			c-0.093,0.053-0.196,0.08-0.309,0.08c-0.074,0-0.153-0.017-0.239-0.05l-4.519-1.845l-2.414,2.943
			c-0.119,0.153-0.283,0.229-0.489,0.229c-0.086,0-0.159-0.013-0.219-0.04c-0.127-0.046-0.228-0.125-0.304-0.235
			s-0.115-0.231-0.115-0.364v-3.481l8.618-10.563l-10.663,9.227l-3.94-1.616c-0.246-0.093-0.379-0.276-0.399-0.549
			c-0.013-0.266,0.093-0.462,0.319-0.589l16.599-9.576c0.099-0.06,0.206-0.09,0.319-0.09C87.251,6.062,87.371,6.099,87.477,6.172z"
			/>
	</g>
</g>
</svg>
